<?xml version="1.0" encoding="utf-8"?>
<!-- Generator: Adobe Illustrator 25.4.1, SVG Export Plug-In . SVG Version: 6.00 Build 0)  -->
<svg version="1.1" id="Layer_1" xmlns="http://www.w3.org/2000/svg" xmlns:xlink="http://www.w3.org/1999/xlink" x="0px" y="0px"
	 viewBox="0 0 300 190.9" style="enable-background:new 0 0 300 190.9;" xml:space="preserve">
<style type="text/css">
	.st0{fill:#0048FF;}
</style>
<path id="bike" class="st0" d="M45.2,100.8c14,0,27,6.9,35,18.4l11.1-4.7v-6.9L56.5,93.1l-8.9-20.5h-4.1L23,97
	c-1.4,1.7-3.9,1.9-5.6,0.5s-1.9-3.9-0.5-5.6l16.2-19.2h-2.6c-2.2,0-4-1.8-4-4c0-2.2,1.8-4,4-4h6l-5.2-2.5c-2.5-1.2-3.6-4.1-2.4-6.6
	l3-6.5c0.8-1.8,2.6-2.9,4.5-2.9l55.5-0.5h0c1.4,0,2.7,0.6,3.7,1.6c0.1,0.1,11.4,11.9,32.4,14.6c1.9-3.5,4.2-6.8,6.9-9.7
	c7.9-8.5,19-13.3,30.6-13.2c2.5,0,5,0.2,7.5,0.6h0c11.4,1.9,22.7,4.5,33.9,7.7c0.2,0,0.5,0,0.9,0c2.2,0,7.6-0.4,9.7-4.1
	c0.2-0.3,0.3-0.6,0.4-0.9l-9.2-1.7c-2.6-0.4-4.4-2.8-3.9-5.4c0.4-2.6,2.8-4.4,5.4-3.9c0.1,0,0.1,0,0.2,0l7.5,1.4
	c-1.1-4.7-3.7-11.1-8.9-19.9c-1.4-2.4-0.6-5.5,1.8-6.8c1.3-0.8,2.9-0.9,4.3-0.4c9.7,4.1,18.4,10.1,25.7,17.8
	c9.8,10.2,16.2,23.2,18.3,37.2c-0.7-1.4-1.6-2.6-2.6-3.8c0,0-13.7,8.9-5.9,21.8h9c-0.2,2.6-0.6,5.3-1,8.1c-0.2,1.1-0.7,2.1-1.5,2.8
	l-11.2,10.3c36.7-4.9,50,18.9,50,18.9c2.8,3.7,1.4,7.6-3.1,5.5c10.7,20.9,2.4,46.5-18.5,57.2c-20.9,10.7-46.5,2.4-57.2-18.5
	c-3.1-6-4.7-12.6-4.7-19.4c0-1.7,0.1-3.4,0.3-5.1h-52l20.5-15.3c0,0,24.3,2.4,41.7-16.5c-1.8-0.1-3.8-0.2-5.9-0.2
	c-14.1,0-33.7,2.5-47.1,14.6c-0.2,0.2-0.4,0.3-0.6,0.4l-46,31c-2,1.3-4.6,1.1-6.3-0.6l-18.5-18.6l-11.1,4.7
	c3,23.3-13.4,44.6-36.7,47.6C27.4,188.6,6,172.1,3,148.8s13.4-44.6,36.7-47.6C41.5,101,43.3,100.8,45.2,100.8L45.2,100.8z
	 M91.2,90.5L59.9,75.7l4.2,9.8l27.1,11.2L91.2,90.5z M254.8,165.9c12.4,0,22.5-10.1,22.5-22.5c0-12.4-10.1-22.5-22.5-22.5
	c-0.5,0-1,0-1.6,0.1l9.3,19.2l-18,8.7l-8.6-17.8c-6.8,10.4-3.9,24.3,6.6,31.1C246.2,164.6,250.5,165.9,254.8,165.9L254.8,165.9z
	 M45.2,165.9c11.3,0,20.8-8.3,22.3-19.5l-17,7.3l-7.9-18.4l18.4-7.9c-8.8-8.7-23.1-8.7-31.8,0.1s-8.7,23.1,0.1,31.8
	C33.6,163.5,39.3,165.9,45.2,165.9L45.2,165.9z"/>
</svg>
