<?xml version="1.0" standalone="no"?>
<!DOCTYPE svg PUBLIC "-//W3C//DTD SVG 20010904//EN"
 "http://www.w3.org/TR/2001/REC-SVG-20010904/DTD/svg10.dtd">
<svg version="1.0" xmlns="http://www.w3.org/2000/svg"
 width="1200.000000pt" height="1200.000000pt" viewBox="0 0 1200.000000 1200.000000"
 preserveAspectRatio="xMidYMid meet">
<metadata>
Created by potrace 1.14, written by Peter Selinger 2001-2017
</metadata>
<g transform="translate(0.000000,1200.000000) scale(0.100000,-0.100000)"
fill="#000000" stroke="none">
<path d="M8455 9591 c-76 -35 -114 -89 -120 -172 -4 -53 14 -95 116 -274 59
-103 183 -365 195 -410 1 -5 13 -41 27 -80 34 -94 43 -144 25 -141 -7 2 -31 6
-53 10 -22 4 -60 11 -85 16 -197 41 -254 37 -312 -22 -111 -114 -53 -297 103
-323 19 -3 45 -8 59 -10 38 -8 69 -14 135 -26 33 -6 71 -13 85 -16 14 -3 35
-6 47 -7 29 -2 36 -10 29 -33 -7 -21 -69 -93 -81 -93 -4 0 -19 -9 -34 -19 -74
-53 -267 -78 -369 -48 -29 9 -56 17 -60 18 -4 1 -11 3 -17 4 -5 2 -23 7 -40
11 -16 4 -34 8 -40 10 -5 2 -19 5 -30 7 -11 3 -47 12 -80 22 -33 9 -69 18 -80
20 -11 1 -40 8 -65 15 -25 7 -52 13 -60 15 -8 2 -33 8 -55 13 -22 6 -51 13
-65 16 -14 2 -32 7 -40 10 -8 3 -28 7 -45 10 -16 3 -41 8 -55 11 -23 5 -93 20
-220 46 -25 5 -61 12 -80 15 -19 3 -43 7 -52 10 -24 7 -67 15 -103 18 -16 2
-41 6 -55 10 -148 36 -490 42 -655 11 -81 -15 -172 -36 -190 -45 -11 -4 -45
-16 -75 -26 -150 -46 -419 -201 -532 -306 -25 -23 -55 -50 -65 -59 -23 -20
-119 -125 -156 -170 -33 -42 -157 -226 -157 -235 0 -9 -37 -54 -41 -50 -2 2
-26 6 -54 9 -27 4 -63 9 -79 12 -52 11 -150 34 -191 45 -22 6 -49 13 -60 15
-39 9 -201 68 -264 96 -35 16 -70 29 -77 29 -7 0 -14 3 -16 8 -1 4 -34 23 -73
42 -72 35 -140 76 -234 139 -29 20 -60 41 -69 46 -24 15 -169 138 -182 154 -3
4 -18 15 -35 26 -29 19 -47 20 -645 18 -1304 -4 -1705 -11 -1747 -28 -71 -30
-91 -61 -217 -339 -33 -72 -36 -138 -8 -192 28 -55 44 -67 178 -134 l119 -59
-130 -1 c-153 -2 -161 -3 -194 -28 -49 -36 -69 -77 -67 -136 4 -102 72 -156
193 -156 l65 0 -34 -42 c-18 -24 -40 -50 -48 -58 -8 -9 -33 -38 -55 -65 -35
-42 -89 -106 -120 -141 -5 -6 -28 -33 -50 -60 -48 -58 -112 -132 -128 -150 -7
-7 -23 -27 -37 -45 -14 -18 -30 -37 -35 -43 -6 -6 -33 -38 -60 -71 -28 -32
-58 -68 -68 -78 -30 -30 -46 -80 -43 -131 4 -79 62 -136 142 -141 53 -3 113
20 137 55 7 11 34 43 58 72 24 28 74 88 112 132 37 45 77 92 90 106 12 14 54
63 92 110 38 47 74 90 80 96 5 6 28 33 50 60 22 26 57 69 78 94 22 25 58 67
80 94 23 27 49 57 58 66 8 9 22 25 30 36 8 11 31 40 52 64 l37 44 82 1 81 1
20 -46 c11 -25 28 -65 39 -90 45 -102 70 -159 73 -170 0 -3 9 -20 18 -37 10
-18 15 -33 11 -33 -4 0 -2 -6 4 -12 5 -7 24 -47 42 -88 47 -108 72 -167 119
-272 10 -24 21 -50 24 -59 3 -9 31 -26 64 -39 59 -24 132 -54 168 -70 11 -5
76 -32 145 -60 69 -28 139 -57 155 -65 17 -7 53 -22 80 -33 28 -11 68 -28 90
-38 22 -10 42 -18 45 -19 3 0 27 -11 54 -23 27 -12 53 -22 57 -22 5 0 17 -4
27 -10 9 -5 33 -15 52 -23 19 -8 56 -24 82 -36 26 -11 50 -21 53 -21 3 0 27
-10 53 -21 60 -27 87 -39 190 -80 52 -21 82 -39 83 -48 1 -19 1 -121 0 -206
l-1 -60 -48 -19 c-97 -39 -307 -128 -357 -153 -29 -13 -31 -13 -55 15 -14 16
-33 40 -43 53 -42 57 -173 198 -184 198 -7 1 -13 5 -13 9 0 16 -132 116 -275
210 -54 35 -251 124 -334 151 -90 30 -236 63 -329 75 -24 3 -47 8 -52 11 -5 3
-11 1 -15 -4 -3 -6 -15 -7 -28 -2 -59 20 -332 -2 -492 -41 -44 -10 -91 -21
-104 -24 -44 -9 -205 -74 -285 -115 -73 -38 -204 -116 -216 -129 -3 -3 -32
-25 -64 -50 -100 -76 -203 -182 -324 -335 -22 -28 -103 -157 -114 -182 -7 -15
-16 -30 -19 -33 -6 -4 -38 -71 -44 -90 -1 -3 -9 -23 -19 -45 -39 -90 -86 -249
-100 -335 -3 -19 -8 -46 -10 -59 -11 -52 -19 -171 -18 -266 1 -160 12 -240 57
-439 3 -11 15 -49 27 -85 12 -36 23 -68 23 -71 3 -11 26 -63 60 -135 81 -174
220 -365 359 -494 72 -67 94 -86 116 -101 12 -8 45 -32 73 -53 123 -92 334
-198 472 -237 96 -27 191 -50 216 -52 16 -1 29 -5 29 -8 0 -14 325 -19 450 -8
72 7 95 11 150 24 14 3 36 7 50 9 14 2 26 4 28 5 1 1 5 3 10 4 163 43 342 117
460 192 29 19 56 34 61 34 5 0 11 3 13 8 2 4 37 33 80 65 86 65 191 163 237
221 17 21 31 35 31 30 0 -5 9 5 20 21 26 40 106 155 125 179 44 58 178 363
189 431 1 6 5 16 9 23 5 6 6 12 3 12 -2 0 0 15 5 33 6 17 12 47 15 66 2 19 6
37 8 40 12 19 21 168 20 331 l0 185 136 57 c74 32 141 58 148 58 7 0 12 5 12
10 0 6 6 10 14 10 7 0 39 11 69 25 l56 24 388 -389 c213 -215 395 -393 404
-395 67 -22 128 -21 172 1 43 23 391 257 395 266 2 5 10 8 18 8 8 0 14 3 14 8
0 4 9 12 20 17 27 13 424 280 473 318 20 16 37 26 37 23 0 -6 28 15 56 42 7 7
16 11 18 10 3 -2 13 4 23 12 10 8 59 42 108 75 50 33 92 63 93 68 2 4 8 7 13
7 9 0 65 36 79 50 3 3 50 34 105 70 55 36 102 67 105 70 3 4 46 33 95 66 50
32 92 62 93 67 2 4 10 7 18 7 8 0 14 5 14 10 0 6 4 10 10 10 9 0 108 67 120
80 7 8 152 121 176 137 11 7 39 26 64 43 25 16 50 30 57 30 6 0 13 4 15 8 4
10 158 87 248 125 108 44 290 104 370 121 14 3 41 9 60 14 19 5 38 9 43 10 4
1 8 2 10 3 17 5 91 19 137 25 25 3 55 10 68 15 17 6 21 6 16 -3 -4 -6 -3 -8 4
-4 6 3 30 9 54 12 24 3 54 7 68 10 39 7 208 17 287 18 40 1 73 3 73 6 0 6 224
3 290 -4 25 -2 50 -5 55 -5 17 -2 -206 -211 -225 -211 -5 0 -10 -3 -10 -7 0
-5 -17 -19 -38 -33 -20 -14 -39 -28 -42 -31 -22 -29 -332 -194 -420 -224 -3
-1 -18 -7 -33 -13 -16 -7 -32 -12 -37 -12 -5 0 -21 -5 -37 -12 -15 -6 -31 -12
-35 -13 -5 -2 -9 -3 -10 -5 -2 -1 -10 -3 -18 -5 -8 -2 -44 -11 -80 -20 -72
-18 -72 -19 -115 -28 -51 -11 -88 -18 -130 -23 -22 -2 -53 -7 -70 -10 -23 -4
-290 -15 -350 -14 -6 0 -20 -7 -30 -15 -11 -8 -53 -40 -93 -70 -40 -30 -77
-55 -82 -55 -6 0 -10 -4 -10 -8 0 -4 -12 -15 -27 -24 -16 -10 -41 -29 -58 -43
-16 -15 -42 -34 -57 -43 -16 -9 -28 -20 -28 -24 0 -4 -7 -8 -15 -8 -7 0 -18
-6 -22 -13 -4 -8 -21 -22 -38 -33 -16 -10 -32 -21 -35 -24 -3 -3 -45 -34 -93
-70 -129 -95 -227 -171 -227 -175 0 -2 289 -3 643 -4 353 0 644 0 647 -1 20
-6 52 -5 55 0 5 9 62 6 71 -3 3 -3 18 -2 32 2 22 6 87 7 87 1 0 -6 47 -5 50 0
5 9 62 6 71 -3 3 -3 18 -2 32 2 22 6 87 7 87 1 0 -6 47 -5 50 0 5 9 62 6 71
-3 3 -3 18 -2 32 2 23 6 76 7 92 1 3 -1 15 -1 27 0 21 1 22 -2 16 -42 -12 -85
-5 -332 13 -420 3 -15 7 -40 9 -56 5 -41 32 -143 61 -232 57 -171 200 -426
312 -552 169 -191 363 -341 573 -440 85 -41 269 -108 313 -113 15 -3 37 -7 48
-11 11 -3 30 -7 41 -9 12 -2 31 -6 42 -8 104 -25 504 -27 543 -3 4 2 27 7 52
10 25 4 63 11 85 16 22 6 48 12 58 15 33 8 172 58 222 81 28 12 66 29 85 38
19 8 53 27 75 41 22 13 47 28 55 32 8 4 33 20 55 35 22 16 51 36 65 46 65 45
189 159 266 244 45 50 144 185 144 197 0 6 4 11 8 11 8 0 125 225 156 300 41
101 88 292 105 435 8 67 7 333 -2 385 -2 14 -8 48 -12 75 -4 28 -11 68 -17 90
-6 22 -11 47 -13 56 -7 33 -77 234 -95 268 -9 20 -21 47 -25 61 -7 22 -6 23 7
12 9 -7 37 -13 63 -14 98 -2 127 85 66 198 -142 266 -494 555 -831 681 -30 12
-64 25 -75 29 -11 4 -24 9 -30 9 -5 1 -22 7 -37 13 -15 6 -38 13 -50 14 -13 2
-29 7 -35 11 -7 5 -13 6 -13 3 0 -3 -11 -1 -26 4 -14 6 -39 12 -57 15 -18 3
-58 10 -89 16 -188 33 -489 39 -718 14 -64 -7 -65 -7 -44 12 34 29 176 158
215 194 20 19 82 77 139 129 86 80 112 111 125 150 7 23 15 63 20 105 3 28 10
79 15 115 5 36 10 81 10 100 l0 35 -180 -1 -180 -1 -6 24 c-4 13 -9 23 -13 23
-5 0 -14 19 -21 43 -8 23 -17 47 -21 52 -27 39 -38 213 -18 288 6 23 13 51 15
61 2 11 8 24 14 30 5 5 10 16 10 24 0 45 160 242 246 302 l40 28 24 -39 c14
-21 28 -39 32 -39 5 0 8 -6 8 -12 0 -7 8 -22 16 -33 14 -19 15 -17 9 22 -22
156 -89 388 -164 577 -41 101 -156 333 -172 346 -3 3 -14 20 -23 38 -18 35
-126 195 -154 227 -9 11 -28 35 -40 52 -73 104 -298 333 -433 443 -24 19 -60
49 -80 65 -130 106 -319 223 -526 326 -183 91 -236 103 -308 70z m-5920 -2867
c55 -26 136 -64 180 -84 44 -21 139 -66 210 -100 222 -106 232 -110 243 -110
7 0 12 -4 12 -10 0 -5 5 -10 11 -10 5 0 47 -18 92 -39 45 -22 145 -69 222
-105 l140 -66 2 -125 c1 -115 -2 -136 -20 -119 -6 7 -112 53 -132 58 -5 1 -27
10 -49 19 -21 9 -40 17 -42 17 -2 0 -23 9 -47 19 -23 11 -136 59 -252 106
-204 83 -290 119 -425 175 -36 15 -75 31 -88 35 -24 7 -26 10 -115 215 -9 19
-17 42 -19 50 -2 8 -5 17 -9 20 -3 3 -14 27 -25 55 -10 27 -21 54 -23 58 -2 5
5 4 15 -2 11 -5 64 -31 119 -57z m-636 -1749 c41 -3 79 -9 84 -12 4 -2 18 -6
30 -8 75 -9 218 -73 317 -143 69 -48 100 -76 100 -89 0 -4 -40 -24 -88 -44
-335 -140 -632 -273 -632 -284 0 -6 6 -25 14 -41 20 -41 47 -103 96 -219 23
-55 50 -118 60 -140 10 -22 35 -80 56 -130 36 -88 44 -105 64 -145 6 -11 10
-27 10 -35 0 -19 4 -19 43 -1 18 8 61 27 97 41 36 14 90 38 120 52 30 14 60
26 65 28 12 3 65 25 210 90 33 15 65 28 70 29 6 1 25 9 44 19 19 9 35 17 37
17 4 0 -10 -87 -18 -110 -3 -8 -16 -44 -28 -80 -91 -268 -330 -485 -620 -561
-66 -18 -114 -23 -210 -23 -69 0 -138 2 -155 6 -45 10 -88 20 -102 22 -7 1
-16 5 -19 9 -4 4 -14 7 -23 7 -20 0 -190 83 -218 107 -11 10 -31 25 -44 33
-75 49 -208 210 -261 315 -21 40 -65 174 -72 216 -3 19 -8 45 -11 59 -7 31 -7
192 0 244 6 41 31 151 35 151 1 0 3 8 5 19 2 10 21 55 43 100 59 122 153 240
252 314 19 15 41 33 49 40 20 19 211 109 251 118 19 4 40 9 45 10 51 13 111
21 144 20 23 0 41 2 41 6 0 4 10 5 23 3 12 -2 56 -6 96 -10z m8311 5 c8 5 17
7 21 4 4 -2 34 -7 66 -10 315 -30 618 -265 734 -569 46 -123 59 -203 55 -345
-3 -74 -6 -142 -9 -150 -2 -8 -9 -35 -16 -60 -30 -110 -78 -211 -144 -300 -49
-65 -150 -170 -165 -170 -6 0 -12 -4 -14 -8 -8 -21 -191 -128 -233 -137 -5 -1
-35 -9 -65 -18 -92 -28 -120 -31 -260 -30 -116 0 -147 4 -222 26 -112 34 -245
98 -294 142 -7 5 -24 18 -38 29 -152 110 -280 323 -322 536 -18 91 -11 295 14
385 21 80 65 184 98 234 l23 34 14 -34 c8 -19 60 -126 115 -239 54 -113 125
-258 156 -322 31 -65 61 -118 66 -118 6 0 10 3 10 8 0 4 27 18 60 32 33 14 60
29 60 33 0 5 4 6 9 2 5 -3 17 2 25 11 9 8 16 13 16 9 0 -3 17 3 38 14 20 11
140 70 265 130 l228 111 -18 32 c-9 18 -18 35 -18 38 -1 5 -64 136 -163 340
-20 41 -41 78 -47 82 -5 4 -6 8 -2 8 7 0 -25 72 -54 120 -5 8 -12 22 -15 30
-4 8 -17 38 -31 65 l-24 50 23 6 c13 3 28 2 33 -2 6 -4 17 -4 25 1z"/>
</g>
</svg>
