<?xml version="1.0" encoding="utf-8"?>
<!-- Generator: Adobe Illustrator 25.4.1, SVG Export Plug-In . SVG Version: 6.00 Build 0)  -->
<svg version="1.1" id="Layer_1" xmlns="http://www.w3.org/2000/svg" xmlns:xlink="http://www.w3.org/1999/xlink" x="0px" y="0px"
	 viewBox="0 0 300 100.3" style="enable-background:new 0 0 300 100.3;" xml:space="preserve">
<style type="text/css">
	.st0{fill:#FFFFFF;}
	.st1{fill:#0048FF;}
</style>
<g id="logo" transform="translate(-9.5 -11.3)">
	<g id="Group_3" transform="translate(9.5 11.3)">
		<g id="Group_2" transform="translate(0 0)">
			<path id="Path_1" class="st0" d="M7.6,14.7H4.8v4.9H2.1V6.2h5.4c1.3-0.1,2.6,0.3,3.6,1.1c1.7,1.7,1.7,4.5,0,6.2
				C10.2,14.4,8.9,14.8,7.6,14.7z M7.5,8.7H4.8v3.6h2.7c1.5,0,2.2-0.6,2.2-1.8C9.7,9.3,9,8.7,7.5,8.7L7.5,8.7z"/>
			<path id="Path_2" class="st0" d="M24.2,6.2h5.7c1.3-0.1,2.6,0.3,3.6,1.1c0.9,0.7,1.3,1.9,1.3,3c0,1-0.4,2-1.1,2.7
				c-0.8,0.7-1.9,1.2-3,1.2l4.1,5.4h-3.2l-3.9-5.3h-0.8v5.3h-2.7L24.2,6.2L24.2,6.2z M29.8,8.7h-2.9v3.3h2.9c1.5,0,2.2-0.6,2.2-1.6
				S31.3,8.7,29.8,8.7z"/>
			<path id="Path_3" class="st0" d="M56.7,17.1v2.4h-10V6.2h9.9v2.4h-7.2v2.9h6.9V14h-6.9v3.1L56.7,17.1L56.7,17.1z M55.2,5.2h-2.4
				l-1.2-1.5l-1.2,1.5h-2.4l2.1-3h3L55.2,5.2z"/>
			<path id="Path_4" class="st0" d="M83.7,6.2v13.3H81V9.5l-3.3,8.8h-2.8l-3.3-8.7v10H69V6.2h3.9l3.5,9l3.5-9H83.7z"/>
			<path id="Path_5" class="st0" d="M98.9,6.2v13.3h-2.7V6.2H98.9z"/>
			<path id="Path_6" class="st0" d="M117.8,6c1.3,0,2.5,0.3,3.6,0.9c1,0.6,1.9,1.4,2.5,2.5c0.6,1.1,0.9,2.3,0.9,3.5
				c0,1.2-0.3,2.5-0.9,3.5c-0.6,1-1.4,1.9-2.5,2.5c-1.1,0.6-2.4,0.9-3.6,0.9c-1,0-1.9-0.2-2.8-0.5c-0.8-0.3-1.6-0.8-2.2-1.5
				c-0.6-0.6-1.1-1.4-1.5-2.2c-0.3-0.9-0.5-1.8-0.5-2.8c0-0.9,0.2-1.9,0.5-2.8c0.3-0.8,0.8-1.6,1.5-2.2c0.6-0.6,1.4-1.1,2.2-1.5
				C115.9,6.1,116.9,6,117.8,6z M117.8,8.5c-1.1,0-2.2,0.4-3,1.2c-0.8,0.8-1.2,2-1.2,3.2c0,1.2,0.4,2.3,1.2,3.2
				c1.7,1.6,4.4,1.6,6.1,0c0.8-0.8,1.2-2,1.2-3.2c0-1.2-0.4-2.3-1.2-3.2C120.1,8.9,119,8.5,117.8,8.5z"/>
			<path id="Path_7" class="st0" d="M147,7.4l-1.3,2.2c-1.1-0.7-2.4-1.1-3.8-1.1c-0.6,0-1.3,0.1-1.8,0.4c-0.4,0.2-0.7,0.7-0.7,1.2
				c0,0.2,0.1,0.4,0.2,0.6c0.2,0.2,0.4,0.3,0.6,0.4c0.3,0.1,0.6,0.2,0.8,0.3c0.3,0.1,0.7,0.1,1.1,0.2l0.8,0.1
				c2.8,0.5,4.2,1.7,4.2,3.7c0,0.7-0.1,1.3-0.4,1.9c-0.3,0.5-0.7,1-1.2,1.4c-0.5,0.4-1.1,0.6-1.7,0.8c-0.7,0.2-1.4,0.3-2.1,0.3
				c-1,0-2.1-0.1-3.1-0.4c-0.9-0.3-1.8-0.7-2.5-1.3l1.4-2.1c0.6,0.4,1.2,0.8,1.9,1c0.8,0.3,1.5,0.4,2.3,0.4c0.6,0,1.3-0.1,1.9-0.4
				c0.5-0.2,0.7-0.7,0.7-1.2c0-0.4-0.3-0.8-0.7-1c-0.7-0.3-1.4-0.5-2.2-0.6l-0.8-0.1c-2.7-0.4-4.1-1.7-4.1-3.8
				c0-0.6,0.1-1.3,0.4-1.8c0.3-0.5,0.7-1,1.2-1.3c0.5-0.4,1.1-0.6,1.7-0.8c0.7-0.2,1.3-0.3,2-0.3c0.9,0,1.8,0.1,2.6,0.3
				C145.4,6.6,146.2,7,147,7.4z"/>
		</g>
	</g>
	<path id="Path_8" class="st1" d="M204.2,98.3V39.2h-11.8v69.6h19.8V98.3H204.2z"/>
	<rect id="Rectangle_1" x="215.8" y="39.2" class="st1" width="11.8" height="69.6"/>
	<path id="Path_9" class="st1" d="M142.8,47.8v53.1c0,4.6,3.7,8.3,8.3,8.3l0,0H164c4.6,0,8.3-3.7,8.3-8.3v0V47.8
		c0-4.6-3.7-8.3-8.3-8.3l0,0h-12.8C146.5,39.5,142.8,43.2,142.8,47.8C142.8,47.8,142.8,47.8,142.8,47.8z M154.6,95.7V53
		c0-1.6,1.3-2.9,2.9-2.9l0,0c1.6,0,2.9,1.3,2.9,2.9v42.7c0,1.6-1.3,2.9-2.9,2.9l0,0C155.9,98.6,154.7,97.3,154.6,95.7L154.6,95.7z"
		/>
	<path id="Path_10" class="st1" d="M295.6,108.8h11.8l-11.2-69.6h-11.8l-11.4,69.6h11.8l1.9-11.6h7L295.6,108.8z M288.5,86.7
		l1.8-11.3l1.8,11.3H288.5z"/>
	<path id="Path_11" class="st1" d="M128.5,39.5v26.8l-8-26.8h-11.8v69.6h11.8V81.9l8,27.3h11.8V39.5H128.5z"/>
	<path id="Path_12" class="st1" d="M257.7,39.2l-7.3,33.7L243,39.2h-11.8v69.6H243l0-29.1l7.3,27.8l7.3-27.8v29.1h11.8V39.2H257.7z"
		/>
	<path id="Path_13" class="st1" d="M96.5,39.5h-3.5v56.1c0,1.6-1.3,2.9-2.9,2.9c-1.6,0-2.9-1.3-2.9-2.9V39.5H75.3v61.3
		c0,4.6,3.7,8.3,8.3,8.3h0h12.8c4.6,0,8.3-3.7,8.3-8.3v0V39.5H96.5z"/>
	<path id="Path_14" class="st1" d="M39.9,65.7V47c0-4.3-3.5-7.8-7.8-7.8H11.6v69.6h20.5c4.3,0,7.8-3.5,7.8-7.8V77.8
		c0-2.8-1.8-5.2-4.4-6C38.1,70.9,39.9,68.5,39.9,65.7z M28.1,98.3h-4.7V77.5h4.7L28.1,98.3z M28.1,67h-4.7V49.7h4.7L28.1,67z"/>
	<path id="Path_15" class="st1" d="M71.4,79.1c0-2.8-1.8-5.2-4.4-6c2.6-0.8,4.4-3.3,4.4-6l0-19.8c0-4.4-3.6-8-8-8H43.1v69.6h11.8
		V77.5h4.7v31.3h11.8C71.4,108.8,71.4,79.3,71.4,79.1z M59.6,67h-4.7V49.7h4.7V67z"/>
</g>
</svg>
