<?xml version="1.0" encoding="utf-8"?>
<!-- Generator: Adobe Illustrator 25.4.1, SVG Export Plug-In . SVG Version: 6.00 Build 0)  -->
<svg version="1.1" id="Layer_1" xmlns="http://www.w3.org/2000/svg" xmlns:xlink="http://www.w3.org/1999/xlink" x="0px" y="0px"
	 viewBox="0 0 208.4 300" style="enable-background:new 0 0 208.4 300;" xml:space="preserve">
<style type="text/css">
	.st0{fill:url(#Path_21_00000031188379273580001220000008581648240263897485_);}
	.st1{fill:url(#Path_22_00000102523092545037461950000018359973258757188776_);}
	.st2{fill:url(#Path_23_00000023999193442411242790000007920247911210647687_);}
	.st3{fill:url(#Path_24_00000182513608724269460580000007589415501406067357_);}
	.st4{fill:url(#Path_25_00000053516888923643380460000004214449929213855677_);}
	.st5{fill:url(#Path_26_00000035530548074904821770000012937472168841850529_);}
	.st6{fill:url(#Path_27_00000008139608709487456760000014437352079886169495_);}
	.st7{fill:url(#Path_28_00000134945201931689220220000006948508144079399817_);}
	.st8{fill:url(#Path_29_00000095316722666536017850000016207308599244005248_);}
	.st9{fill:url(#Path_30_00000062906234426296629180000011966417541413799828_);}
	.st10{fill:url(#Path_31_00000018921141378206968740000011711998402209693572_);}
	.st11{fill:url(#Path_32_00000127755571370581139290000012288135494189974414_);}
	.st12{fill:url(#Path_33_00000129174400705509984880000012538592964315494277_);}
	.st13{fill:url(#Path_34_00000092433392565151640620000013123566235416973731_);}
	.st14{fill:url(#Path_35_00000003068800286675239450000010556122921507637935_);}
	.st15{fill:url(#Path_36_00000144325730925887390440000007670161232635595701_);}
	.st16{fill:url(#Path_37_00000145751411106167561610000015269118105307614639_);}
	.st17{fill:url(#Path_38_00000082338043429282351980000000085952759430196650_);}
	.st18{fill:url(#Path_39_00000172399834716604356190000014567000004285276300_);}
	.st19{fill:url(#Path_40_00000047037315934424621700000007481832934186134684_);}
</style>
<g id="Group_18" transform="translate(-363.809 -73.33)">
	
		<linearGradient id="Path_21_00000140010531316977918430000002716568917878439554_" gradientUnits="userSpaceOnUse" x1="368.9605" y1="367.3094" x2="368.9605" y2="368.8761" gradientTransform="matrix(55.188 0 0 -59.97 -19892.8125 22384.0625)">
		<stop  offset="0" style="stop-color:#EEBE47"/>
		<stop  offset="0.12" style="stop-color:#F8DB76"/>
		<stop  offset="0.21" style="stop-color:#FFEE96"/>
		<stop  offset="0.446" style="stop-color:#A2621E"/>
		<stop  offset="0.667" style="stop-color:#EEA54C"/>
		<stop  offset="1" style="stop-color:#EEBE47"/>
	</linearGradient>
	<path id="Path_21" style="fill:url(#Path_21_00000140010531316977918430000002716568917878439554_);" d="M468.5,278.6
		c-16.7,0.1-33.1-4-47.8-11.9v104.7l48.7-43l48.7,43V265.6C503,274.3,485.9,278.8,468.5,278.6z"/>
	
		<linearGradient id="Path_22_00000031169289010079513870000015743758782138746796_" gradientUnits="userSpaceOnUse" x1="368.9605" y1="367.0606" x2="368.9605" y2="368.825" gradientTransform="matrix(55.188 0 0 -59.97 -19892.8008 22384.0625)">
		<stop  offset="0" style="stop-color:#EEBE47"/>
		<stop  offset="0.12" style="stop-color:#F8DB76"/>
		<stop  offset="0.21" style="stop-color:#FFEE96"/>
		<stop  offset="0.446" style="stop-color:#A2621E"/>
		<stop  offset="0.667" style="stop-color:#EEA54C"/>
		<stop  offset="1" style="stop-color:#EEBE47"/>
	</linearGradient>
	<path id="Path_22" style="fill:url(#Path_22_00000031169289010079513870000015743758782138746796_);" d="M516.9,266.3v102.6
		l-46.8-41.3l-0.7-0.7l-0.7,0.7l-46.8,41.3V267.3c-0.4-0.2-0.8-0.4-1.1-0.6v104.7l48.7-43l48.7,43V265.6
		C517.7,265.8,517.3,266.1,516.9,266.3z"/>
	
		<linearGradient id="Path_23_00000150807710867243175580000017682503850417653908_" gradientUnits="userSpaceOnUse" x1="366.2895" y1="372.0565" x2="367.8986" y2="370.4475" gradientTransform="matrix(115.842 0 0 -115.842 -42051.3984 43191.4648)">
		<stop  offset="0" style="stop-color:#EEBE47"/>
		<stop  offset="0.12" style="stop-color:#F8DB76"/>
		<stop  offset="0.21" style="stop-color:#FFEE96"/>
		<stop  offset="0.446" style="stop-color:#A2621E"/>
		<stop  offset="0.667" style="stop-color:#EEA54C"/>
		<stop  offset="1" style="stop-color:#EEBE47"/>
	</linearGradient>
	<path id="Path_23" style="fill:url(#Path_23_00000150807710867243175580000017682503850417653908_);" d="M467.4,76.6
		c-56.4,0-102.2,45.8-102.2,102.2s45.8,102.2,102.2,102.2s102.2-45.8,102.2-102.2l0,0C569.6,122.3,523.8,76.6,467.4,76.6z
		 M467.4,277.3c-54.4,0-98.5-44.1-98.5-98.5s44.1-98.5,98.5-98.5s98.5,44.1,98.5,98.5l0,0C565.9,233.2,521.8,277.3,467.4,277.3
		L467.4,277.3z"/>
	
		<linearGradient id="Path_24_00000168118874732995507340000006853083177381882006_" gradientUnits="userSpaceOnUse" x1="366.4572" y1="371.812" x2="368.0663" y2="370.203" gradientTransform="matrix(105.614 0 0 -105.614 -38315.0078 39367.9336)">
		<stop  offset="0" style="stop-color:#EEBE47"/>
		<stop  offset="0.12" style="stop-color:#F8DB76"/>
		<stop  offset="0.21" style="stop-color:#FFEE96"/>
		<stop  offset="0.446" style="stop-color:#A2621E"/>
		<stop  offset="0.667" style="stop-color:#EEA54C"/>
		<stop  offset="1" style="stop-color:#EEBE47"/>
	</linearGradient>
	<path id="Path_24" style="fill:url(#Path_24_00000168118874732995507340000006853083177381882006_);" d="M467.4,85.6
		c-51.5,0-93.2,41.7-93.2,93.2s41.7,93.2,93.2,93.2s93.2-41.7,93.2-93.2S518.8,85.6,467.4,85.6C467.4,85.6,467.4,85.6,467.4,85.6z
		 M467.4,265.8c-48.1,0-87-39-87-87c0-48.1,39-87,87-87c48.1,0,87,39,87,87C554.4,226.8,515.4,265.8,467.4,265.8
		C467.4,265.8,467.4,265.8,467.4,265.8z"/>
	<g id="Group_14">
		
			<linearGradient id="Path_25_00000084497320991542553130000002342556492190333874_" gradientUnits="userSpaceOnUse" x1="366.5799" y1="371.6634" x2="368.383" y2="369.6839" gradientTransform="matrix(93.2191 0 0 -93.3017 -33786.957 34765.2266)">
			<stop  offset="0" style="stop-color:#EEBE47"/>
			<stop  offset="0.12" style="stop-color:#F8DB76"/>
			<stop  offset="0.21" style="stop-color:#FFEE96"/>
			<stop  offset="0.446" style="stop-color:#A2621E"/>
			<stop  offset="0.667" style="stop-color:#EEA54C"/>
			<stop  offset="1" style="stop-color:#EEBE47"/>
		</linearGradient>
		<path id="Path_25" style="fill:url(#Path_25_00000084497320991542553130000002342556492190333874_);" d="M463.8,261.1
			c-0.5,0-0.9-0.5-0.9-1l0,0c0-0.5,0.5-0.9,1-0.9l0,0c0.5,0,0.9,0.4,0.9,1c0,0,0,0,0,0l0,0C464.7,260.7,464.3,261.1,463.8,261.1
			L463.8,261.1L463.8,261.1z M477.5,259.6c-0.1-0.5,0.3-1,0.8-1.1c0,0,0,0,0,0l0,0c0.5-0.1,1,0.3,1.1,0.8l0,0c0.1,0.5-0.3,1-0.8,1
			l0,0c0,0-0.1,0-0.1,0l0,0C477.9,260.4,477.5,260.1,477.5,259.6L477.5,259.6z M449.1,259.1c-0.5-0.1-0.8-0.6-0.7-1.1l0,0
			c0.1-0.5,0.6-0.8,1.1-0.7c0,0,0,0,0,0l0,0c0.5,0.1,0.8,0.6,0.7,1.1c0,0,0,0,0,0l0,0c-0.1,0.4-0.5,0.7-0.9,0.7l0,0
			C449.3,259.1,449.2,259.1,449.1,259.1z M491.8,256.5c-0.2-0.5,0.1-1,0.6-1.2c0,0,0,0,0,0l0,0c0.5-0.2,1,0.1,1.2,0.6c0,0,0,0,0,0
			l0,0c0.2,0.5-0.1,1-0.6,1.2l0,0c-0.1,0-0.2,0-0.3,0l0,0C492.2,257.2,491.9,256.9,491.8,256.5z M435.1,254.6
			c-0.5-0.2-0.7-0.7-0.5-1.2c0,0,0,0,0,0l0,0c0.2-0.5,0.7-0.7,1.2-0.5l0,0c0.5,0.2,0.7,0.8,0.5,1.2l0,0c-0.1,0.3-0.5,0.6-0.8,0.6
			l0,0C435.3,254.6,435.2,254.6,435.1,254.6L435.1,254.6z M505.2,250.9c-0.2-0.4-0.1-1,0.4-1.2l0,0c0.4-0.2,1-0.1,1.3,0.4l0,0
			c0.2,0.4,0.1,1-0.4,1.3l0,0c-0.1,0.1-0.3,0.1-0.4,0.1l0,0C505.7,251.4,505.4,251.2,505.2,250.9L505.2,250.9z M422.1,247.6
			c-0.4-0.3-0.5-0.9-0.3-1.3c0,0,0,0,0,0l0,0c0.3-0.4,0.8-0.5,1.2-0.3c0,0,0,0,0,0l0,0c0.4,0.3,0.6,0.8,0.3,1.3l0,0
			c-0.2,0.3-0.5,0.4-0.8,0.4l0,0C422.4,247.7,422.2,247.7,422.1,247.6L422.1,247.6z M517.5,243c-0.3-0.4-0.3-1,0.1-1.3c0,0,0,0,0,0
			l0,0c0.4-0.3,1-0.3,1.3,0.1c0,0,0,0,0,0l0,0c0.3,0.4,0.3,1-0.1,1.3l0,0c-0.2,0.1-0.4,0.2-0.6,0.2l0,0
			C517.9,243.3,517.7,243.2,517.5,243L517.5,243z M410.5,238.4c-0.4-0.3-0.4-0.9,0-1.3c0,0,0,0,0,0l0,0c0.4-0.4,0.9-0.4,1.3,0l0,0
			c0.4,0.4,0.4,0.9,0,1.3l0,0c-0.2,0.2-0.4,0.3-0.7,0.3l0,0C410.9,238.6,410.7,238.5,410.5,238.4L410.5,238.4z M528.1,233
			c-0.4-0.3-0.4-0.9-0.1-1.3l0,0c0.3-0.4,0.9-0.4,1.3-0.1l0,0c0.4,0.3,0.4,0.9,0.1,1.3l0,0c-0.2,0.2-0.4,0.3-0.7,0.3l0,0
			C528.5,233.2,528.3,233.2,528.1,233L528.1,233z M400.8,227.3L400.8,227.3c-0.3-0.4-0.2-1,0.2-1.3l0,0c0.4-0.3,1-0.2,1.3,0.2
			c0,0,0,0,0,0l0,0c0.3,0.4,0.2,1-0.2,1.3l0,0c-0.2,0.1-0.3,0.2-0.5,0.2l0,0C401.3,227.7,401,227.5,400.8,227.3L400.8,227.3z
			 M536.9,221.3c-0.4-0.3-0.6-0.8-0.3-1.2c0,0,0,0,0,0l0,0c0.3-0.4,0.8-0.6,1.3-0.3l0,0c0.4,0.3,0.6,0.8,0.3,1.2c0,0,0,0,0,0l0,0
			c-0.2,0.3-0.5,0.4-0.8,0.4l0,0C537.2,221.4,537,221.4,536.9,221.3L536.9,221.3z M393.2,214.6L393.2,214.6c-0.2-0.4,0-1,0.4-1.2
			c0,0,0,0,0,0l0,0c0.5-0.2,1,0,1.2,0.4h0c0.2,0.4,0,1-0.4,1.2c0,0,0,0,0,0l0,0c-0.1,0.1-0.3,0.1-0.4,0.1l0,0
			C393.7,215.2,393.4,215,393.2,214.6L393.2,214.6z M543.3,208.2c-0.5-0.2-0.7-0.7-0.5-1.2c0,0,0,0,0,0l0,0c0.2-0.5,0.7-0.7,1.2-0.6
			l0,0c0.5,0.2,0.7,0.7,0.5,1.2l0,0c-0.1,0.4-0.5,0.6-0.9,0.6l0,0C543.6,208.3,543.5,208.3,543.3,208.2L543.3,208.2z M388,200.8
			L388,200.8c-0.1-0.5,0.2-1,0.6-1.1l0,0c0.5-0.1,1,0.1,1.1,0.6c0,0,0,0,0,0l0,0c0.1,0.5-0.2,1-0.6,1.1c0,0,0,0,0,0l0,0
			c-0.1,0-0.2,0-0.3,0l0,0C388.5,201.5,388.1,201.2,388,200.8L388,200.8z M547.4,194.2c-0.5-0.1-0.8-0.6-0.7-1.1l0,0
			c0.1-0.5,0.6-0.8,1.1-0.8c0,0,0,0,0,0l0,0c0.5,0.1,0.8,0.6,0.8,1.1l0,0c-0.1,0.4-0.5,0.8-0.9,0.8H547.4z M385.3,186.3
			c0-0.5,0.3-1,0.8-1c0,0,0,0,0,0l0,0c0.5,0,1,0.3,1,0.8l0,0c0,0.5-0.3,1-0.9,1h-0.1C385.8,187.1,385.4,186.8,385.3,186.3
			L385.3,186.3z M547.9,178.8c0-0.1,0-0.1,0-0.2l0,0c0-0.1,0-0.1,0-0.2l0,0c0-0.5,0.4-0.9,0.9-0.9l0,0c0.5,0,0.9,0.4,0.9,0.9
			c0,0,0,0,0,0l0,0c0,0.1,0,0.1,0,0.2l0,0c0,0.1,0,0.1,0,0.2l0,0c0,0.5-0.4,0.9-0.9,0.9l0,0C548.3,179.7,547.9,179.3,547.9,178.8
			L547.9,178.8z M386.1,172.6c-0.5-0.1-0.9-0.5-0.9-1l0,0c0.1-0.5,0.5-0.9,1-0.8l0,0c0.5,0,0.9,0.5,0.9,1l0,0
			C387.1,172.2,386.7,172.6,386.1,172.6L386.1,172.6L386.1,172.6z M546.6,164.1c-0.1-0.5,0.2-1,0.7-1.1c0,0,0,0,0,0l0,0
			c0.5-0.1,1,0.2,1.1,0.7c0,0,0,0,0,0l0,0c0.1,0.5-0.2,1-0.7,1.1h-0.2C547,164.8,546.7,164.5,546.6,164.1L546.6,164.1z M388.5,158.1
			c-0.5-0.1-0.8-0.6-0.6-1.1l0,0c0.1-0.5,0.6-0.8,1.1-0.7c0,0,0,0,0,0l0,0c0.5,0.1,0.8,0.6,0.6,1.1l0,0c-0.1,0.4-0.5,0.7-0.9,0.7
			l0,0C388.7,158.2,388.6,158.2,388.5,158.1L388.5,158.1z M542.7,150.1c-0.2-0.5,0.1-1,0.5-1.2l0,0c0.5-0.2,1,0.1,1.2,0.5
			c0,0,0,0,0,0l0,0c0.2,0.5,0,1-0.5,1.2c0,0,0,0,0,0l0,0c-0.1,0.1-0.2,0.1-0.3,0.1l0,0C543.2,150.7,542.8,150.5,542.7,150.1
			L542.7,150.1z M393.5,144.4c-0.5-0.2-0.6-0.8-0.4-1.2l0,0c0.2-0.5,0.7-0.7,1.2-0.4c0,0,0,0,0,0l0,0c0.5,0.2,0.7,0.8,0.4,1.2l0,0
			c-0.2,0.3-0.5,0.5-0.8,0.5l0,0C393.7,144.5,393.6,144.5,393.5,144.4L393.5,144.4z M536.4,137.2L536.4,137.2
			c-0.3-0.4-0.1-1,0.3-1.3l0,0c0.4-0.3,1-0.1,1.3,0.3l0,0c0.3,0.4,0.1,1-0.3,1.3c0,0,0,0,0,0l0,0c-0.1,0.1-0.3,0.1-0.5,0.1l0,0
			C536.8,137.6,536.5,137.5,536.4,137.2L536.4,137.2z M400.8,131.8c-0.4-0.3-0.5-0.9-0.2-1.3c0,0,0,0,0,0l0,0
			c0.3-0.4,0.9-0.5,1.3-0.2l0,0c0.4,0.3,0.5,0.9,0.2,1.3c0,0,0,0,0,0l0,0c-0.2,0.2-0.5,0.4-0.8,0.4l0,0
			C401.2,131.9,401,131.9,400.8,131.8z M527.8,125.5c-0.3-0.4-0.3-1,0.1-1.3c0,0,0,0,0,0l0,0c0.4-0.3,1-0.3,1.3,0.1l0,0
			c0.3,0.4,0.3,0.9-0.1,1.3c0,0,0,0,0,0l0,0c-0.2,0.1-0.4,0.2-0.6,0.2l0,0C528.3,125.9,528,125.7,527.8,125.5L527.8,125.5z
			 M410.3,120.7c-0.4-0.4-0.3-1,0-1.3l0,0c0.4-0.4,1-0.3,1.3,0l0,0c0.3,0.4,0.3,0.9,0,1.3c0,0,0,0,0,0l0,0c-0.2,0.2-0.4,0.3-0.6,0.3
			l0,0C410.7,120.9,410.4,120.8,410.3,120.7L410.3,120.7z M517.4,115.6c-0.4-0.3-0.5-0.9-0.1-1.3l0,0c0.3-0.4,0.9-0.5,1.3-0.1l0,0
			c0.4,0.3,0.5,0.9,0.2,1.3c0,0,0,0,0,0l0,0c-0.2,0.2-0.4,0.4-0.7,0.4l0,0C517.7,115.8,517.5,115.7,517.4,115.6L517.4,115.6z
			 M421.5,111.4c-0.3-0.4-0.2-1,0.3-1.3l0,0c0.4-0.3,1-0.2,1.3,0.3l0,0c0.3,0.4,0.2,1-0.2,1.3l0,0c-0.2,0.1-0.3,0.2-0.5,0.2l0,0
			C422,111.8,421.7,111.6,421.5,111.4L421.5,111.4z M505.3,107.7c-0.5-0.2-0.6-0.8-0.4-1.2c0,0,0,0,0,0l0,0c0.2-0.4,0.8-0.6,1.3-0.4
			l0,0c0.4,0.2,0.6,0.8,0.4,1.2l0,0c-0.2,0.3-0.5,0.5-0.8,0.5l0,0C505.6,107.8,505.4,107.8,505.3,107.7L505.3,107.7z M434.3,104.3
			c-0.2-0.5,0-1,0.5-1.2l0,0c0.5-0.2,1,0,1.2,0.5l0,0c0.2,0.5,0,1-0.5,1.2l0,0c-0.1,0.1-0.2,0.1-0.4,0.1l0,0
			C434.8,104.8,434.4,104.6,434.3,104.3L434.3,104.3z M492,102c-0.5-0.2-0.7-0.7-0.6-1.2l0,0c0.2-0.5,0.7-0.7,1.2-0.6l0,0
			c0.5,0.1,0.7,0.7,0.6,1.1c0,0,0,0,0,0l0,0c-0.1,0.4-0.5,0.6-0.9,0.6l0,0C492.2,102.1,492.1,102.1,492,102L492,102z M448.1,99.6
			c-0.1-0.5,0.2-1,0.7-1.1c0,0,0,0,0,0h0c0.5-0.1,1,0.2,1.1,0.7l0,0c0.1,0.5-0.2,1-0.7,1.1l0,0c-0.1,0-0.1,0-0.2,0l0,0
			C448.6,100.3,448.2,100,448.1,99.6L448.1,99.6z M477.9,98.9L477.9,98.9c-0.5-0.1-0.9-0.5-0.8-1l0,0c0.1-0.5,0.5-0.8,1-0.8l0,0
			c0.5,0.1,0.9,0.5,0.8,1c0,0,0,0,0,0l0,0c-0.1,0.5-0.4,0.8-0.9,0.8l0,0C478,98.9,478,98.9,477.9,98.9L477.9,98.9z M463.5,98.3
			c-0.5,0-0.9-0.4-1-0.9l0,0c0-0.5,0.3-0.9,0.8-1c0,0,0,0,0,0l0,0c0.5,0,0.9,0.4,1,0.9c0,0,0,0,0,0l0,0
			C464.4,97.8,464,98.3,463.5,98.3C463.5,98.3,463.5,98.3,463.5,98.3L463.5,98.3z"/>
	</g>
	<g id="Group_15">
		
			<linearGradient id="Path_26_00000070838799655757372400000002541416363854345873_" gradientUnits="userSpaceOnUse" x1="375.4218" y1="268.4741" x2="377.3873" y2="254.3842" gradientTransform="matrix(18.549 0 0 -2.525 -6509.1309 813.9838)">
			<stop  offset="0" style="stop-color:#EEBE47"/>
			<stop  offset="0.12" style="stop-color:#F8DB76"/>
			<stop  offset="0.21" style="stop-color:#FFEE96"/>
			<stop  offset="0.446" style="stop-color:#A2621E"/>
			<stop  offset="0.667" style="stop-color:#EEA54C"/>
			<stop  offset="1" style="stop-color:#EEBE47"/>
		</linearGradient>
		<path id="Path_26" style="fill:url(#Path_26_00000070838799655757372400000002541416363854345873_);" d="M451.5,148l1.4,3.3
			c0,0,3.6,1.1,15.1,1.1s15.2-1.1,15.2-1.1l1-3.1c-5.5,0.8-11.1,1.2-16.7,1.2C462.1,149.4,456.7,148.9,451.5,148z"/>
		
			<linearGradient id="Path_27_00000007395961297366947310000008512421132428192912_" gradientUnits="userSpaceOnUse" x1="406.7212" y1="324.4918" x2="414.4595" y2="318.0909" gradientTransform="matrix(4.711 0 0 -5.5612 -1460.5105 1939.6635)">
			<stop  offset="0" style="stop-color:#EEBE47"/>
			<stop  offset="0.12" style="stop-color:#F8DB76"/>
			<stop  offset="0.21" style="stop-color:#FFEE96"/>
			<stop  offset="0.446" style="stop-color:#A2621E"/>
			<stop  offset="0.667" style="stop-color:#EEA54C"/>
			<stop  offset="1" style="stop-color:#EEBE47"/>
		</linearGradient>
		<path id="Path_27" style="fill:url(#Path_27_00000007395961297366947310000008512421132428192912_);" d="M455.9,138.6
			c1.6,0,3.2-0.5,4.5-1.4c-2.2-1.4-3.9-3.3-5.1-5.6c0.7-0.4,1-1.2,0.6-1.9c-0.4-0.7-1.2-1-1.9-0.6c-0.5,0.2-0.8,0.7-0.8,1.3
			c0,0.7,0.5,1.3,1.2,1.4c-0.5,2.2-1.2,4.3-2.3,6.2C453.3,138.3,454.6,138.6,455.9,138.6z"/>
		
			<linearGradient id="Path_28_00000021121122247926857450000005944551622512647049_" gradientUnits="userSpaceOnUse" x1="406.2444" y1="326.7282" x2="413.9245" y2="320.329" gradientTransform="matrix(4.747 0 0 -5.5742 -1461.3987 1944.5142)">
			<stop  offset="0" style="stop-color:#EEBE47"/>
			<stop  offset="0.12" style="stop-color:#F8DB76"/>
			<stop  offset="0.21" style="stop-color:#FFEE96"/>
			<stop  offset="0.446" style="stop-color:#A2621E"/>
			<stop  offset="0.667" style="stop-color:#EEA54C"/>
			<stop  offset="1" style="stop-color:#EEBE47"/>
		</linearGradient>
		<path id="Path_28" style="fill:url(#Path_28_00000021121122247926857450000005944551622512647049_);" d="M482.1,137.9
			c-1.1-2-1.9-4.1-2.3-6.3c0.7-0.1,1.2-0.7,1.2-1.4c0-0.8-0.6-1.5-1.4-1.5c-0.8,0-1.5,0.6-1.5,1.4c0,0.5,0.3,1,0.8,1.3
			c-1.2,2.3-2.9,4.3-5.1,5.7c1.3,0.9,2.9,1.4,4.5,1.4C479.6,138.6,480.9,138.4,482.1,137.9z"/>
		
			<linearGradient id="Path_29_00000172427782653855186500000004330064294963891099_" gradientUnits="userSpaceOnUse" x1="372.259" y1="353.4346" x2="373.5593" y2="350.714" gradientTransform="matrix(28.044 0 0 -13.0744 -9978.084 4749.8721)">
			<stop  offset="0" style="stop-color:#EEBE47"/>
			<stop  offset="0.12" style="stop-color:#F8DB76"/>
			<stop  offset="0.21" style="stop-color:#FFEE96"/>
			<stop  offset="0.446" style="stop-color:#A2621E"/>
			<stop  offset="0.667" style="stop-color:#EEA54C"/>
			<stop  offset="1" style="stop-color:#EEBE47"/>
		</linearGradient>
		<path id="Path_29" style="fill:url(#Path_29_00000172427782653855186500000004330064294963891099_);" d="M489.9,129.4
			c-1.2,0-2.1,0.9-2.1,2.1c0,0.7,0.4,1.4,1,1.8c-2,3.9-6.1,6.4-10.5,6.5c-6.3,0-9.4-7.1-10.6-10.8c0.9-0.3,1.5-1.1,1.5-2
			c0-1.2-0.9-2.1-2.1-2.1c-1.2,0-2.1,0.9-2.1,2.1c0,0,0,0,0,0c0,0.9,0.6,1.7,1.5,2c-1.2,3.7-4.3,10.8-10.6,10.8
			c-5.1,0-8.5-3.9-10.3-6.5c0.6-0.4,1.1-1,1.1-1.8c0-1.2-0.9-2.1-2.1-2.2s-2.1,0.9-2.2,2.1c0,1.2,0.9,2.1,2.1,2.2
			c0.3,0,0.6,0,0.8-0.1l5.5,13c3.3,0.7,15.4,2.9,33.8,0.3l4.4-13.3c1.1,0.4,2.3-0.1,2.7-1.2c0.4-1.1-0.1-2.3-1.2-2.7
			C490.4,129.5,490.1,129.4,489.9,129.4L489.9,129.4z"/>
	</g>
	<g id="Group_16">
		
			<linearGradient id="Path_30_00000057870171230421098600000006447760949468416399_" gradientUnits="userSpaceOnUse" x1="380.0042" y1="347.5403" x2="380.0042" y2="349.3047" gradientTransform="matrix(12.6901 0 0 -11.454 -4387.6011 4166.1538)">
			<stop  offset="0" style="stop-color:#EEBE47"/>
			<stop  offset="0.12" style="stop-color:#F8DB76"/>
			<stop  offset="0.21" style="stop-color:#FFEE96"/>
			<stop  offset="0.446" style="stop-color:#A2621E"/>
			<stop  offset="0.667" style="stop-color:#EEA54C"/>
			<stop  offset="1" style="stop-color:#EEBE47"/>
		</linearGradient>
		<path id="Path_30" style="fill:url(#Path_30_00000057870171230421098600000006447760949468416399_);" d="M440.3,173.4h-0.1
			l-4.1,11.9h-2.7l-4.1-11.9H429l-1,12h-4.6l1.8-20.2h4.9l4.5,11.7l4.5-11.7h4.9l1.8,20.2h-4.6L440.3,173.4z"/>
		
			<linearGradient id="Path_31_00000177475393730706219520000000602515490739678887_" gradientUnits="userSpaceOnUse" x1="382.0987" y1="347.5403" x2="382.0987" y2="349.3047" gradientTransform="matrix(11.654 0 0 -11.454 -3997.0889 4166.1538)">
			<stop  offset="0" style="stop-color:#EEBE47"/>
			<stop  offset="0.12" style="stop-color:#F8DB76"/>
			<stop  offset="0.21" style="stop-color:#FFEE96"/>
			<stop  offset="0.446" style="stop-color:#A2621E"/>
			<stop  offset="0.667" style="stop-color:#EEA54C"/>
			<stop  offset="1" style="stop-color:#EEBE47"/>
		</linearGradient>
		<path id="Path_31" style="fill:url(#Path_31_00000177475393730706219520000000602515490739678887_);" d="M466.2,185.4h-4.9l-1.5-4
			H452l-1.5,4h-4.9l8.1-20.2h4.3L466.2,185.4z M455.9,171.5L455.9,171.5l-2.3,5.9h4.6L455.9,171.5z"/>
		
			<linearGradient id="Path_32_00000042728538567204888440000000605000248081467811_" gradientUnits="userSpaceOnUse" x1="442.4992" y1="347.5403" x2="442.4992" y2="349.3047" gradientTransform="matrix(2.61 0 0 -11.454 -685.6561 4166.1538)">
			<stop  offset="0" style="stop-color:#EEBE47"/>
			<stop  offset="0.12" style="stop-color:#F8DB76"/>
			<stop  offset="0.21" style="stop-color:#FFEE96"/>
			<stop  offset="0.446" style="stop-color:#A2621E"/>
			<stop  offset="0.667" style="stop-color:#EEA54C"/>
			<stop  offset="1" style="stop-color:#EEBE47"/>
		</linearGradient>
		<path id="Path_32" style="fill:url(#Path_32_00000042728538567204888440000000605000248081467811_);" d="M471.6,185.4H467v-20.2
			h4.6V185.4z"/>
		
			<linearGradient id="Path_33_00000127748233421540858010000006828714565123326387_" gradientUnits="userSpaceOnUse" x1="383.3277" y1="348.4319" x2="383.3277" y2="350.1963" gradientTransform="matrix(11.5294 0 0 -11.8706 -3935.7676 4321.8755)">
			<stop  offset="0" style="stop-color:#EEBE47"/>
			<stop  offset="0.12" style="stop-color:#F8DB76"/>
			<stop  offset="0.21" style="stop-color:#FFEE96"/>
			<stop  offset="0.446" style="stop-color:#A2621E"/>
			<stop  offset="0.667" style="stop-color:#EEA54C"/>
			<stop  offset="1" style="stop-color:#EEBE47"/>
		</linearGradient>
		<path id="Path_33" style="fill:url(#Path_33_00000127748233421540858010000006828714565123326387_);" d="M483.8,164.9
			c5.8,0.2,10.3,5,10.1,10.8c-0.2,5.5-4.6,10-10.1,10.1c-5.6,0.1-10.1-4.4-10.2-9.9c0-0.2,0-0.4,0-0.6
			C473.5,169.6,478,164.9,483.8,164.9C483.7,164.9,483.8,164.9,483.8,164.9z M483.8,181.3c3.7,0,5.2-3,5.2-6c0-3-1.6-6-5.2-6
			c-3.5,0-5.2,3-5.2,6S480,181.3,483.8,181.3z"/>
		
			<linearGradient id="Path_34_00000086694133544920072680000012939968263873016219_" gradientUnits="userSpaceOnUse" x1="388.2883" y1="347.5359" x2="388.2883" y2="349.3003" gradientTransform="matrix(9.428 0 0 -11.452 -3156.4653 4165.3999)">
			<stop  offset="0" style="stop-color:#EEBE47"/>
			<stop  offset="0.12" style="stop-color:#F8DB76"/>
			<stop  offset="0.21" style="stop-color:#FFEE96"/>
			<stop  offset="0.446" style="stop-color:#A2621E"/>
			<stop  offset="0.667" style="stop-color:#EEA54C"/>
			<stop  offset="1" style="stop-color:#EEBE47"/>
		</linearGradient>
		<path id="Path_34" style="fill:url(#Path_34_00000086694133544920072680000012939968263873016219_);" d="M503.2,165.2
			c3.7,0,6.6,2,6.6,6c0.1,2.7-1.6,5.1-4.1,5.9l7,8.4h-5.9l-6.2-8v8H496v-20.2H503.2z M501.1,174.2c1.7,0,3.8-0.1,3.8-2.6
			s-2.1-2.6-3.8-2.6h-0.5v5.3H501.1z"/>
	</g>
	<g id="Group_17">
		
			<linearGradient id="Path_35_00000077319753198952056520000005856225938694262178_" gradientUnits="userSpaceOnUse" x1="384.7737" y1="347.4576" x2="384.7737" y2="349.2219" gradientTransform="matrix(9.3437 0 0 -11.8925 -3171.1633 4345.9546)">
			<stop  offset="0" style="stop-color:#EEBE47"/>
			<stop  offset="0.12" style="stop-color:#F8DB76"/>
			<stop  offset="0.21" style="stop-color:#FFEE96"/>
			<stop  offset="0.446" style="stop-color:#A2621E"/>
			<stop  offset="0.667" style="stop-color:#EEA54C"/>
			<stop  offset="1" style="stop-color:#EEBE47"/>
		</linearGradient>
		<path id="Path_35" style="fill:url(#Path_35_00000077319753198952056520000005856225938694262178_);" d="M430.3,208l2,3.9
			c-4.8,3.3-11.3,2.1-14.6-2.6c-3.3-4.8-2.1-11.3,2.6-14.6c3.6-2.5,8.4-2.5,12,0l-2,3.9c-1.2-0.8-2.5-1.2-4-1.2
			c-3.3-0.4-6.2,2-6.6,5.3c-0.4,3.3,2,6.2,5.3,6.6c0.5,0.1,0.9,0.1,1.4,0C427.8,209.2,429.1,208.8,430.3,208z"/>
		
			<linearGradient id="Path_36_00000099647102859183329210000014626696140734621332_" gradientUnits="userSpaceOnUse" x1="386.5857" y1="346.4908" x2="386.5857" y2="348.2551" gradientTransform="matrix(8.912 0 0 -11.458 -3003.335 4183.5122)">
			<stop  offset="0" style="stop-color:#EEBE47"/>
			<stop  offset="0.12" style="stop-color:#F8DB76"/>
			<stop  offset="0.21" style="stop-color:#FFEE96"/>
			<stop  offset="0.446" style="stop-color:#A2621E"/>
			<stop  offset="0.667" style="stop-color:#EEA54C"/>
			<stop  offset="1" style="stop-color:#EEBE47"/>
		</linearGradient>
		<path id="Path_36" style="fill:url(#Path_36_00000099647102859183329210000014626696140734621332_);" d="M438.7,213.4H434v-20.2
			h4.6v8.1h6.5v-8.1h4.6v20.2h-4.6v-8.1h-6.5V213.4z"/>
		
			<linearGradient id="Path_37_00000064328579641522453270000010050801557397938874_" gradientUnits="userSpaceOnUse" x1="382.2856" y1="346.4791" x2="382.2856" y2="348.2434" gradientTransform="matrix(11.653 0 0 -11.453 -3993.9045 4181.6494)">
			<stop  offset="0" style="stop-color:#EEBE47"/>
			<stop  offset="0.12" style="stop-color:#F8DB76"/>
			<stop  offset="0.21" style="stop-color:#FFEE96"/>
			<stop  offset="0.446" style="stop-color:#A2621E"/>
			<stop  offset="0.667" style="stop-color:#EEA54C"/>
			<stop  offset="1" style="stop-color:#EEBE47"/>
		</linearGradient>
		<path id="Path_37" style="fill:url(#Path_37_00000064328579641522453270000010050801557397938874_);" d="M471.1,213.4h-4.9l-1.5-4
			H457l-1.5,4h-4.9l8.2-20.2h4.3L471.1,213.4z M460.9,199.5L460.9,199.5l-2.3,5.9h4.6L460.9,199.5z"/>
		
			<linearGradient id="Path_38_00000152239094260839042760000005010801993945103232_" gradientUnits="userSpaceOnUse" x1="386.3651" y1="346.4908" x2="386.3651" y2="348.2551" gradientTransform="matrix(9.801 0 0 -11.458 -3306.178 4183.5122)">
			<stop  offset="0" style="stop-color:#EEBE47"/>
			<stop  offset="0.12" style="stop-color:#F8DB76"/>
			<stop  offset="0.21" style="stop-color:#FFEE96"/>
			<stop  offset="0.446" style="stop-color:#A2621E"/>
			<stop  offset="0.667" style="stop-color:#EEA54C"/>
			<stop  offset="1" style="stop-color:#EEBE47"/>
		</linearGradient>
		<path id="Path_38" style="fill:url(#Path_38_00000152239094260839042760000005010801993945103232_);" d="M476.5,213.4h-4.6v-20.2
			h4.6l8,12.5h0.1v-12.5h4.6v20.2h-4.6l-8-12.5h0V213.4z"/>
		
			<linearGradient id="Path_39_00000142135307209957097960000004194921835505034386_" gradientUnits="userSpaceOnUse" x1="388.2882" y1="347.4576" x2="388.2882" y2="349.2219" gradientTransform="matrix(9.3437 0 0 -11.8925 -3128.1992 4345.9546)">
			<stop  offset="0" style="stop-color:#EEBE47"/>
			<stop  offset="0.12" style="stop-color:#F8DB76"/>
			<stop  offset="0.21" style="stop-color:#FFEE96"/>
			<stop  offset="0.446" style="stop-color:#A2621E"/>
			<stop  offset="0.667" style="stop-color:#EEA54C"/>
			<stop  offset="1" style="stop-color:#EEBE47"/>
		</linearGradient>
		<path id="Path_39" style="fill:url(#Path_39_00000142135307209957097960000004194921835505034386_);" d="M506.1,208l2,3.9
			c-4.8,3.3-11.3,2.1-14.6-2.6c-3.3-4.8-2.1-11.3,2.6-14.6c3.6-2.5,8.4-2.5,12,0l-2,3.9c-1.2-0.8-2.5-1.2-4-1.2
			c-3.3-0.4-6.2,2-6.6,5.3c-0.4,3.3,2,6.2,5.3,6.6c0.5,0.1,0.9,0.1,1.4,0C503.6,209.2,505,208.8,506.1,208z"/>
		
			<linearGradient id="Path_40_00000168819073439970629710000000983780464629331621_" gradientUnits="userSpaceOnUse" x1="399.1132" y1="346.468" x2="399.1132" y2="348.2323" gradientTransform="matrix(6.554 0 0 -11.448 -2100.1641 4179.771)">
			<stop  offset="0" style="stop-color:#EEBE47"/>
			<stop  offset="0.12" style="stop-color:#F8DB76"/>
			<stop  offset="0.21" style="stop-color:#FFEE96"/>
			<stop  offset="0.446" style="stop-color:#A2621E"/>
			<stop  offset="0.667" style="stop-color:#EEA54C"/>
			<stop  offset="1" style="stop-color:#EEBE47"/>
		</linearGradient>
		<path id="Path_40" style="fill:url(#Path_40_00000168819073439970629710000000983780464629331621_);" d="M521.4,197.3h-7v4h6.7v4
			h-6.7v4.1h7v4h-11.6v-20.2h11.6L521.4,197.3z"/>
	</g>
</g>
</svg>
